<svg width="95" height="95" viewBox="0 0 95 95" fill="none" xmlns="http://www.w3.org/2000/svg">
<path d="M86.1852 20.3219C85.2841 19.027 84.3176 17.7794 83.2944 16.5839C83.2793 16.5669 83.2698 16.547 83.2546 16.529C83.2357 16.5072 83.213 16.4893 83.1941 16.4675C82.1699 15.2786 81.0879 14.1418 79.9521 13.0608C73.7814 7.18352 66.0337 2.95709 57.401 1.08477C54.1542 0.380521 50.7873 0 47.3285 0C43.8707 0 40.5037 0.380521 37.2561 1.08477C24.2833 3.89798 13.2946 12.0252 6.68563 23.0783C4.64198 26.4955 3.02429 30.1928 1.88935 34.0974C0.667332 38.2982 0 42.7348 0 47.3285C0 57.3328 3.11422 66.6083 8.41406 74.2528C9.21013 75.401 10.0507 76.516 10.9424 77.5866C11.0664 77.7787 11.1989 77.9671 11.3484 78.1422C11.516 78.3382 11.7006 78.518 11.8955 78.6865C12.8005 79.7078 13.7489 80.6866 14.7372 81.6256C20.9022 87.4858 28.6394 91.7018 37.257 93.5704C40.5037 94.2746 43.8716 94.6551 47.3295 94.6551C50.7873 94.6551 54.1552 94.2746 57.4019 93.5704C70.422 90.7477 81.441 82.5703 88.0424 71.4556C90.0103 68.1436 91.5816 64.5722 92.6995 60.8029C93.967 56.5301 94.658 52.0103 94.658 47.3276C94.657 37.2873 91.521 27.9825 86.1852 20.3219ZM76.7867 76.9817C74.1676 79.5829 71.2039 81.8338 67.976 83.674C66.932 84.2694 65.8614 84.8212 64.7624 85.3267C66.5676 83.1543 68.2099 80.6478 69.6609 77.8715C68.9065 77.9037 68.1426 77.9273 67.357 77.9273C66.0583 77.9273 64.7331 77.8715 63.3928 77.7806C63.3691 77.8194 63.3464 77.8611 63.3227 77.899C58.8407 85.1535 53.1594 89.1499 47.3285 89.1499C41.5298 89.1499 35.8807 85.1951 31.41 78.0173C31.3854 77.9766 31.3589 77.9397 31.3334 77.899C31.0825 77.4929 30.8412 77.0754 30.6017 76.6561C29.7138 75.098 28.9045 73.4482 28.1766 71.7178C27.9797 71.2493 27.7904 70.7722 27.6048 70.2923C26.981 68.6718 26.4254 66.9888 25.9427 65.2499C24.5947 64.4217 23.2904 63.5679 22.0333 62.6913C21.8686 62.9403 21.6992 63.1902 21.5402 63.4363C21.0849 64.1443 20.6778 64.8126 20.3068 65.4515C20.9183 67.8341 21.6471 70.1163 22.4801 72.2829C22.6618 72.7572 22.8455 73.2286 23.0376 73.6905C23.7674 75.4473 24.572 77.1161 25.4362 78.696C25.6946 79.1674 25.9597 79.6283 26.2295 80.0836C27.3597 81.9891 28.5817 83.7488 29.8946 85.3276C28.7966 84.8222 27.725 84.2703 26.681 83.6749C25.3103 82.8931 23.987 82.0383 22.7177 81.1126C22.1668 80.7103 21.6272 80.2966 21.0981 79.8688C21.9983 79.6908 22.9392 79.4608 23.9198 79.1749C23.0499 77.5648 22.2453 75.8846 21.5222 74.1307C19.8439 74.568 18.3938 74.7838 17.2115 74.7838C16.3529 74.7838 15.8759 74.6664 15.6487 74.585C15.6061 74.5699 15.5692 74.5557 15.5436 74.5443C15.5351 74.515 15.5275 74.4743 15.5209 74.4373C15.3477 73.5921 15.5616 70.6624 18.6361 65.2225C18.9797 64.6138 19.3716 63.9635 19.7909 63.2915C19.9357 63.0586 20.073 62.8333 20.2273 62.5929C20.3986 62.326 20.5822 62.0562 20.7602 61.7864C20.2557 61.4182 19.7568 61.0481 19.2684 60.6733C18.6399 60.1915 18.0265 59.7059 17.4273 59.2137C17.0865 58.9344 16.7496 58.6533 16.4192 58.3712C14.0055 61.9502 12.2155 65.2982 11.143 68.2543C10.7994 67.6627 10.47 67.0617 10.1548 66.4521C7.19204 60.7159 5.50715 54.2167 5.50715 47.3285C5.50715 46.8458 5.52702 46.3687 5.54406 45.8897C5.57719 44.9034 5.63588 43.9246 5.73716 42.9573C7.84896 47.3067 11.3778 51.7925 16.121 56.054C16.4448 56.3455 16.7723 56.6352 17.1074 56.9248C17.1727 56.9807 17.2342 57.0375 17.2995 57.0943C17.8192 57.5382 18.3512 57.9793 18.8973 58.4157C19.7748 59.1199 20.6939 59.8138 21.6386 60.4981C22.056 60.802 22.4792 61.104 22.9098 61.404C23.7106 61.9606 24.5351 62.5096 25.3785 63.0501C26.0013 63.4505 26.6374 63.8452 27.2839 64.2352C28.2173 64.7994 29.1657 65.3559 30.1454 65.8974C31.1327 66.4436 32.1275 66.9613 33.1262 67.4649C33.697 67.7536 34.2677 68.0423 34.8414 68.3168C36.903 69.3031 38.9826 70.191 41.066 70.9994C41.6803 71.2379 42.2956 71.4689 42.9109 71.6923C45.1968 72.5205 47.479 73.2418 49.7413 73.8514C49.942 74.5623 50.3026 75.2041 50.7825 75.7379C51.6562 76.711 52.9199 77.3282 54.3312 77.3282C55.0279 77.3282 55.6886 77.1748 56.284 76.9069C56.9513 76.6069 57.5382 76.161 58.0001 75.6064C59.5393 75.843 61.0538 76.0238 62.5399 76.1497C63.1239 76.1989 63.7023 76.2368 64.2759 76.268C65.319 76.3258 66.3498 76.3655 67.357 76.3655C68.4143 76.3655 69.4489 76.3314 70.4608 76.2671C71.0723 76.2283 71.6752 76.1781 72.2687 76.1156C74.6049 75.8714 76.7905 75.4407 78.7935 74.8292C78.1488 75.5694 77.4825 76.2907 76.7867 76.9817ZM89.1101 48.8932C89.0742 49.8776 89.0088 50.8545 88.9047 51.8219C88.5583 51.0997 88.174 50.3765 87.749 49.6486C87.9421 49.1298 88.0528 48.5714 88.0528 47.9864C88.0528 47.6683 88.0197 47.3579 87.96 47.0569C87.6808 45.6455 86.7816 44.4576 85.5558 43.7912C84.879 43.423 84.1037 43.2147 83.2792 43.2147C83.2035 43.2147 83.1297 43.2223 83.054 43.2261C81.6871 41.6747 80.1565 40.1365 78.4754 38.6248C78.1753 38.355 77.8705 38.0862 77.5601 37.8174C77.6339 38.4184 77.6954 39.0243 77.7551 39.631C77.9605 41.7144 78.0797 43.8319 78.1167 45.9711C78.3173 46.187 78.5142 46.4028 78.7083 46.6186C78.5786 47.0531 78.5066 47.5112 78.5066 47.9883C78.5066 48.2751 78.536 48.5543 78.5843 48.826C78.8474 50.3112 79.7959 51.5578 81.0927 52.228C81.7278 52.5564 82.4453 52.7467 83.2064 52.758C84.3905 54.8613 85.1752 56.922 85.4904 58.8786C85.9505 61.7315 85.3295 64.0307 83.5907 65.9135C81.7174 67.9448 78.5776 69.412 74.5935 70.1986C74.0218 70.3122 73.433 70.4125 72.8282 70.4968C71.1234 70.7334 69.2937 70.8603 67.357 70.8603C67.1847 70.8603 67.0077 70.8508 66.8335 70.8489C66.2836 70.8423 65.7317 70.8328 65.1723 70.8091C62.9801 70.7135 60.7196 70.4741 58.4204 70.1068C57.8572 69.1697 56.9835 68.4427 55.9395 68.0688C55.5372 67.9249 55.1103 67.8331 54.6654 67.8019C54.5546 67.7943 54.4439 67.7848 54.3303 67.7848C53.3099 67.7848 52.3662 68.1076 51.59 68.6538C50.6055 68.3944 49.6192 68.1143 48.631 67.8104C48.011 67.6201 47.391 67.4195 46.771 67.2122C44.6753 66.5127 42.5834 65.7175 40.5104 64.8315C39.9207 64.5807 39.3347 64.3251 38.7497 64.0591C36.7392 63.1457 34.7505 62.1537 32.8053 61.0774C30.4815 59.7948 28.2807 58.4252 26.219 56.9968C26.0733 56.8955 25.9256 56.7942 25.7808 56.6929C25.4987 56.4942 25.2195 56.2944 24.944 56.0938C24.6411 55.8751 24.3439 55.6536 24.0476 55.4321C22.8483 54.5319 21.7049 53.6128 20.6258 52.6804C20.2263 52.3359 19.8363 51.9885 19.4539 51.6392C19.0081 51.2322 18.5698 50.8251 18.1486 50.4143C17.5911 49.872 17.0544 49.3267 16.5404 48.7787C12.4133 44.379 9.75819 39.8677 9.10033 35.804C8.63745 32.9473 9.25651 30.6433 10.9906 28.7625C12.8781 26.7188 16.0434 25.246 20.0607 24.4622C20.7422 22.4119 21.5174 20.4355 22.3826 18.5462C20.0503 18.7875 17.8694 19.2135 15.8674 19.8193C16.512 19.0829 17.1755 18.3644 17.8694 17.6753C20.4876 15.0741 23.4513 12.8241 26.6791 10.9831C27.7231 10.3877 28.7947 9.83581 29.8927 9.33034C28.0847 11.5056 26.4415 14.0159 24.9885 16.7959C24.714 17.3203 24.449 17.8561 24.1887 18.3994C23.3178 20.2206 22.5274 22.146 21.8251 24.1659C21.6339 24.715 21.4512 25.2706 21.2732 25.8338C20.8558 27.158 20.4753 28.5173 20.1335 29.9107C19.3839 30.1937 18.7232 30.6594 18.2082 31.2548C17.485 32.0916 17.0449 33.1792 17.0449 34.3719C17.0449 34.9521 17.1537 35.5059 17.3431 36.0198C17.6185 36.7657 18.0729 37.4236 18.6569 37.9414C18.2792 40.9761 18.0795 44.114 18.0795 47.3285C18.0795 47.6115 18.0899 47.8898 18.0927 48.1719C18.8254 48.932 19.6054 49.6893 20.4279 50.4389C21.4332 49.2245 22.4924 48.0053 23.5952 46.7852C23.616 43.9843 23.793 41.2288 24.1262 38.5491C24.8882 38.1269 25.5195 37.5022 25.954 36.7487C26.3572 36.0482 26.5911 35.2389 26.5911 34.3728C26.5911 34.1144 26.5645 33.8626 26.5257 33.6156C26.3847 32.7343 26.0061 31.9335 25.4533 31.2832C25.9493 29.2424 26.539 27.2679 27.2234 25.3757C27.4127 24.8522 27.6115 24.3373 27.815 23.8261C28.5732 21.9245 29.4232 20.1099 30.3707 18.4061C30.6566 17.8921 30.9519 17.3885 31.2539 16.8944C31.2813 16.8508 31.3059 16.8035 31.3334 16.759C35.8163 9.50357 41.4967 5.50715 47.3285 5.50715C53.1244 5.50715 58.7707 9.45718 63.2404 16.6293C65.0369 15.8181 66.7701 15.1281 68.4247 14.5668C67.2964 12.6642 66.0753 10.9064 64.7643 9.33034C65.8624 9.83581 66.9339 10.3877 67.9779 10.9831C69.3476 11.764 70.67 12.6178 71.9384 13.5435C72.4884 13.9458 73.0288 14.3604 73.5599 14.7883C72.6597 14.9634 71.7178 15.1934 70.7372 15.4783C70.2412 15.6222 69.7338 15.7822 69.2189 15.9535C67.5823 16.4978 65.8529 17.1793 64.0497 17.9886C63.5802 18.1997 63.1059 18.4184 62.626 18.6465C60.252 19.7767 57.7635 21.117 55.1983 22.6514C54.6455 22.9827 54.0889 23.3216 53.5285 23.6699C51.6562 24.8361 49.7498 26.1007 47.8217 27.4591C47.3001 27.8263 46.7767 28.2002 46.2523 28.5817C44.6847 29.7214 43.1078 30.9178 41.527 32.172C41.0717 32.0272 40.5861 31.9486 40.0835 31.9486C39.7843 31.9486 39.4928 31.9799 39.2088 32.0319C37.5476 32.3396 36.1921 33.5076 35.6147 35.0572C35.4216 35.5759 35.3109 36.1353 35.3109 36.7213C35.3109 36.9371 35.3307 37.1482 35.3572 37.3555C31.6107 40.6808 28.1908 44.0629 25.1532 47.3967C24.6288 47.9712 24.1177 48.5439 23.6169 49.1166C22.924 49.907 22.252 50.6945 21.6055 51.4754C22.3239 52.0945 23.0679 52.7098 23.8432 53.3156C24.3922 53.7453 24.9573 54.1713 25.5328 54.5934C25.6663 54.6909 25.7978 54.7875 25.9322 54.885C29.656 50.3954 34.1352 45.7989 39.1066 41.3935C39.4218 41.4588 39.7493 41.4948 40.0844 41.4948C40.6476 41.4948 41.1872 41.3926 41.6888 41.2127C42.7679 40.8275 43.6672 40.0664 44.2275 39.0839C44.6261 38.3872 44.857 37.5826 44.857 36.7213C44.857 36.6692 44.8513 36.619 44.8494 36.5679C47.4894 34.4627 50.0632 32.5649 52.5403 30.8743C53.06 30.5193 53.5749 30.1757 54.0851 29.8387C56.0464 28.5457 57.9415 27.3852 59.756 26.3525C60.3155 26.0345 60.8692 25.7249 61.4116 25.4306C62.6724 24.7481 63.8897 24.129 65.0587 23.5762C65.5415 23.3472 66.0129 23.1342 66.4786 22.9269C68.3405 22.0996 70.0613 21.4455 71.6203 20.959C72.1438 20.7961 72.6502 20.6485 73.1368 20.5235C74.7904 20.0947 76.2216 19.8827 77.3887 19.8827C78.4044 19.8827 78.891 20.0493 79.0566 20.1231L79.0604 20.1241L79.0613 20.1279C79.2724 20.8198 79.173 23.7504 76.0105 29.373C76.5037 31.3741 76.9221 33.4262 77.2468 35.5238C77.562 35.7832 77.8743 36.0435 78.181 36.3057C80.6147 32.6955 82.4169 29.3219 83.4865 26.3468C83.8311 26.9394 84.1615 27.5395 84.4776 28.1491C87.4574 33.8976 89.1518 40.4157 89.1518 47.3257C89.1499 47.8529 89.1291 48.3735 89.1101 48.8932ZM29.5955 71.0657C30.3215 72.7979 31.1336 74.4449 32.0263 75.9963C34.3832 74.8718 36.8538 73.54 39.3981 72.0189C37.3043 71.1745 35.2304 70.2459 33.1877 69.2378C31.9458 69.9108 30.7455 70.5195 29.5955 71.0657ZM69.1337 40.1317C68.9775 40.0172 68.8232 39.9027 68.6661 39.7891C64.5031 44.8078 59.3954 49.959 53.7131 54.8254C49.677 58.2841 45.7619 61.2677 42.058 63.796C44.1424 64.6564 46.2437 65.4213 48.3432 66.0895C51.3098 63.9342 54.3123 61.5678 57.2987 59.0073C61.8356 55.1226 65.9352 51.1328 69.5057 47.2102C69.501 44.8078 69.3713 42.4433 69.1337 40.1317ZM76.5113 44.3307C76.4744 43.3804 76.4176 42.4385 76.3466 41.5043C76.2879 40.7271 76.2178 39.9557 76.1355 39.1909C76.0323 38.2244 75.9102 37.2674 75.7711 36.3218C75.6594 35.5608 75.5354 34.8073 75.4009 34.0614C75.2334 33.1347 75.0545 32.2156 74.8538 31.3125C74.691 30.5827 74.5187 29.8624 74.3351 29.1496C73.7265 26.786 73.0014 24.5219 72.1741 22.3703C70.5734 22.8606 68.8497 23.5336 67.0465 24.3543C67.6798 25.9976 68.243 27.7061 68.7305 29.4705C68.9311 30.1956 69.1176 30.9301 69.2937 31.6722C69.589 32.9255 69.8503 34.2034 70.0727 35.503C70.1939 36.2092 70.3037 36.921 70.4031 37.6394C70.4788 38.1894 70.5507 38.7412 70.6141 39.2969C70.6937 39.9973 70.7618 40.7025 70.8205 41.4125C70.9312 42.7566 71.006 44.1159 71.0401 45.4893C71.0562 46.1008 71.0666 46.7132 71.0666 47.3295C71.0666 47.4951 71.0609 47.6589 71.06 47.8236C71.007 55.5315 69.748 62.8835 67.427 69.2965C69.5474 69.2937 71.5494 69.1328 73.3791 68.8289C75.417 62.3761 76.5747 55.0734 76.5747 47.3295C76.5747 47.0758 76.5652 46.8259 76.5624 46.5732C76.5567 45.8206 76.5397 45.0738 76.5113 44.3307ZM68.3755 37.6792C68.5459 37.7975 68.7144 37.9149 68.8829 38.0341C68.845 37.7521 68.81 37.4681 68.7674 37.1879C68.4257 34.8811 67.9619 32.6415 67.3901 30.4834C66.4284 29.9012 65.4516 29.3257 64.4406 28.7672C63.4571 28.2229 62.4651 27.708 61.4703 27.2063C59.6188 28.2476 57.7323 29.392 55.8439 30.6149C57.8506 31.5255 59.8337 32.5137 61.776 33.5881C64.1046 34.8735 66.3101 36.247 68.3755 37.6792ZM51.6846 22.9799C44.9697 20.5472 38.2802 19.0507 32.1048 18.5253C31.1336 20.1998 30.2524 21.9813 29.4753 23.8668C34.7126 24.0987 40.3248 25.1333 45.9617 26.8637C47.886 25.4807 49.7972 24.183 51.6846 22.9799Z" fill="#F8D99B"/>
</svg>
